<svg height="224pt" preserveAspectRatio="xMidYMid meet" viewBox="0 0 224 224" width="224pt" xmlns="http://www.w3.org/2000/svg"><path d="m982 2214c-75-22-109-43-160-99-73-80-99-170-81-284 12-76 51-152 91-176 34-20 35-29 3-43-14-6-25-16-25-21s-14-14-30-21c-45-19-69-54-63-93 6-44 28-75 58-83 14-3 25-10 25-15s20-9 45-9h45v-60c0-104-21-251-47-334-35-113-76-200-103-219-19-13-21-22-17-72l5-56-88-70c-98-77-126-119-116-177 4-26 0-41-14-60-16-20-20-40-20-102 0-66 3-79 22-98 26-23 125-72 148-72 9 0 20-4 25-9 31-31 413-46 605-25 293 33 451 108 452 216 1 79-3 98-27 126-17 20-25 42-25 66 0 68-39 116-158 192l-61 39 5 52c5 49 3 53-27 80-65 57-153 292-173 462-14 117-12 133 21 136 10 1 41 13 70 26 49 22 53 27 59 67 9 60-6 89-51 98-25 4-37 13-41 29-3 13-16 26-30 29l-23 6 38 51c135 179 65 436-139 507-81 27-143 33-198 16z" transform="matrix(.1 0 0 -.1 0 224)"/></svg>